<?xml version="1.0" encoding="iso-8859-1"?>
<!DOCTYPE svg PUBLIC "-//W3C//DTD SVG 1.1//EN" "http://www.w3.org/Graphics/SVG/1.1/DTD/svg11.dtd">
<svg version="1.1" xmlns="http://www.w3.org/2000/svg" xmlns:xlink="http://www.w3.org/1999/xlink" x="0px" y="0px"
	 viewBox="0 0 235 235" style="enable-background:new 0 0 235 235;" xml:space="preserve">

<g>
	<g>
		<g>
			<path style="fill:#000000;" d="M138.413,167.222c-5.883,0.611-11.646,0.391-17.273-0.696c-4.104-0.798-8.123-2.055-12.074-3.788
				c-5.079-2.225-9.611-5.248-13.733-8.951c-4.464-3.992-7.901-8.73-11.116-13.724c-4.515-6.998-6.943-14.539-7.2-22.777
				c-0.291-8.781,2.052-17.019,6.225-24.629c2.052-3.737,4.703-7.27,7.679-10.344c3.147-3.261,6.978-5.86,10.518-8.747
				c0.154-0.102,0.359-0.153,0.787-0.323c0,0.73,0,1.308,0,1.868c-0.051,5.486-0.154,10.973-0.103,16.442
				c0,1.783-0.274,3.329-1.385,4.756c-2.377,2.989-3.489,6.556-4.293,10.174c-2.172,9.835-1.779,19.567,2.839,28.671
				c3.66,7.253,9.218,13.028,16.606,16.714c1.283,0.645,2.582,1.189,3.882,1.614c6.225,2.14,12.707,2.14,19.308,0.815
				c6.037-1.223,11.715-3.363,17.068-6.353c2.36-1.325,4.669-2.769,6.943-4.263c2.257-1.495,4.515-1.461,6.447,0.272
				c1.881,1.699,2.155,3.805,0.65,6.2c-2.326,3.72-5.627,6.539-9.201,8.968C154.198,163.774,146.587,166.373,138.413,167.222z"/>
			<path style="fill:#000000;" d="M144.142,84.333c-5.695-2.888-11.954-3.074-18.213-2.565c-0.684,0.051-1.368,0.136-2.086,0.187
				c0-4.994,0-9.767,0-14.828c2.719,0.272,5.199,0.442,7.679,0.781c5.746,0.798,11.219,2.463,16.572,4.773
				c2.89,1.274,6.14,1.834,9.269,2.446c4.464,0.883,7.61,3.448,9.406,7.389c2.086,4.586,3.933,9.308,5.455,14.098
				c0.599,1.851,0.291,4.127-0.086,6.115c-0.428,2.225-2.292,2.854-4.173,1.546c-1.248-0.866-2.48-1.885-3.403-3.091
				C159.089,93.981,152.18,88.41,144.142,84.333z"/>
			<path style="fill:#000000;" d="M104.106,185.583c0.103-6.522,0.239-13.028,0.342-19.55c0.017-0.527,0.068-1.053,0.103-1.665
				c2.993,1.019,5.746,2.055,8.551,2.904c2.343,0.696,4.737,1.308,7.149,1.749c0.137,0.017,0.274,0.051,0.393,0.085
				c0.906,0.255,1.146,0.713,1.095,1.766c-0.325,7.287-0.581,14.573-0.855,21.86c-0.051,1.274-0.017,2.548-0.051,3.839
				c-0.086,2.871,1.385,4.79,3.814,6.132c2.018,1.121,3.249,2.752,3.147,5.147c-0.051,1.393-0.068,2.786-0.291,4.127
				c-0.564,3.312-2.069,4.569-5.473,4.586c-5.421,0.017-10.825,0-16.247-0.017c-1.334,0-2.685,0.068-4.019-0.051
				c-2.428-0.204-3.78-1.24-4.224-3.618c-0.376-1.919-0.462-3.907-0.462-5.86c0-1.936,1.248-3.261,2.856-4.144
				c2.634-1.478,4.036-3.516,4.053-6.675C104.004,192.666,104.055,189.116,104.106,185.583z"/>
			<path style="fill:#000000;" d="M143.509,36.978c-4.429-0.425-8.876-0.628-13.322-0.713c-1.95-0.051-3.951,0.255-5.866,0.662
				c-1.779,0.391-3.386,1.189-3.437,3.125c-5.575,0.849-11.014,1.665-16.657,2.531c0-1.563-0.086-3.397,0.034-5.215
				c0.068-1.24-0.393-1.987-1.437-2.582c-3.882-2.242-4.173-4.467-3.403-8.798c0.393-2.225,2.275-3.703,4.566-3.686
				c15.853,0.136,31.724,0.289,47.577,0.476c1.231,0.017,2.463,0.17,3.677,0.357c2.788,0.442,4.925,1.783,6.413,4.28
				c2.993,5.011,6.122,9.936,9.184,14.913c0.77,1.24,1.573,2.565,0.581,4.009c-0.958,1.393-2.497,1.749-4.122,1.699
				c-2.377-0.068-4.207-1.308-6.02-2.701c-2.411-1.834-4.891-3.584-7.422-5.265C150.743,38.014,147.134,37.301,143.509,36.978z"/>
			<path style="fill:#000000;" d="M156.797,65.921c-9.423-4.28-19.257-5.996-29.535-5.384c-5.455,0.323-10.774,1.206-15.939,2.684
				c-3.437,0.968-6.789,2.208-10.09,3.72c-6.225,2.854-11.817,6.522-16.845,11.21c-3.044,2.837-5.353,6.149-7.764,9.461
				c-8.996,12.433-11.202,38.081-2.052,54.846c4.156,7.592,9.782,14.064,16.76,19.227c2.924,2.174,6.259,3.788,9.389,5.69
				c0.274,0.17,0.599,0.527,0.599,0.798c0.034,5.69,0.034,11.363,0.034,17.359c-1.556-0.238-2.719-0.204-3.711-0.594
				c-4.036-1.529-8.123-2.989-12.005-4.841c-6.704-3.176-12.672-7.491-17.786-12.892c-1.847-1.97-3.728-3.941-5.455-5.996
				c-4.823-5.724-8.055-12.314-11.065-19.109c-5.165-11.771-6.293-24.017-4.891-36.535c0.581-5.215,1.933-10.531,3.951-15.389
				c2.104-5.028,5.25-9.699,8.311-14.285c1.984-2.972,4.549-5.605,7.012-8.255c5.609-6.03,12.416-10.48,19.684-14.336
				c17.358-9.189,35.657-12.263,55.034-8.34c8.123,1.648,15.785,4.467,23.053,8.544c3.215,1.817,6.807,3.074,10.347,4.263
				c5.541,1.851,9.492,5.011,10.945,10.922c1.471,5.928,3.113,11.822,4.908,17.665c0.718,2.344,1.659,4.552,1.505,7.066
				c-0.086,1.546-0.325,3.023-1.95,3.669c-1.59,0.645-3.198,0.289-4.275-0.951c-1.488-1.716-2.873-3.533-4.036-5.469
				c-2.001-3.38-3.437-7.151-5.746-10.293C170.461,73.904,164.151,69.267,156.797,65.921z"/>
			<path style="fill:#000000;" d="M174.497,174.61c-13.117,10.752-28.218,15.66-45.303,14.132c-1.693-0.153-3.403-0.272-5.319-0.408
				c0.239-5.045,0.462-9.851,0.684-14.624c3.386,0.221,6.345,0.51,9.338,0.611c11.27,0.442,21.788-2.038,31.211-8.408
				c1.881-1.274,3.745-2.633,5.524-4.06c4.395-3.55,7.969-7.83,10.911-12.637c0.599-0.985,1.283-1.919,1.933-2.871
				c1.334-1.936,3.574-2.548,5.798-1.597c2.976,1.291,4.275,3.431,3.369,6.302c-0.547,1.733-1.608,3.329-2.582,4.875
				c-1.693,2.701-3.284,5.537-5.336,7.949C181.526,167.629,178.294,171.502,174.497,174.61z"/>
			<path style="fill:#000000;" d="M115.889,151.867c-7.388-3.686-12.946-9.461-16.606-16.714
				c-4.618-9.104-5.011-18.837-2.839-28.671c0.804-3.618,1.915-7.185,4.293-10.174c1.112-1.427,1.385-2.972,1.385-4.756
				c-0.051-5.469,0.051-10.956,0.103-16.442h2.873c-0.017,19.618-0.068,39.253-0.308,58.888c-0.051,3.176,1.18,5.384,3.113,7.491
				c1.18,1.291,2.548,2.412,3.814,3.601c2.617,2.463,5.763,4.043,9.013,5.435l-0.958,2.955
				C118.472,153.056,117.172,152.513,115.889,151.867z"/>
			<path style="fill:#000000;" d="M131.315,105.412c0.752-3.55,5.199-5.673,8.329-3.703c1.043,0.679,2.155,1.749,2.531,2.871
				c2.24,6.709,4.275,13.486,6.362,20.247c0.051,0.153,0.103,0.306,0.137,0.459c0.547,2.293,0.924,4.603-1.3,6.285
				c-2.411,1.8-5.113,1.987-7.713,0.611c-1.368-0.73-2.497-1.953-3.626-3.074c-1.248-1.223-2.292-2.667-3.557-3.839
				c-2.582-2.395-5.729-2.021-8.79-1.444c-1.659,0.323-2.172,1.733-2.138,3.329c0.103,7.389,0.205,14.794,0.308,22.2
				c0,0.425,0,0.832,0,1.393c-0.462-0.085-0.821-0.085-1.129-0.221c-3.249-1.393-6.396-2.972-9.013-5.435
				c-1.266-1.189-2.634-2.31-3.814-3.601c-1.933-2.106-3.164-4.314-3.113-7.491c0.239-19.635,0.291-39.27,0.308-58.888
				c0-1.189,0-2.378,0-3.567c0-1.936,0.581-3.108,2.257-3.924c1.539-0.73,3.113-1.342,4.72-1.8c2.907-0.832,5.934-1.223,9.201-1.155
				c0,0.815-0.017,1.444,0,2.072c0.034,11.975,0.086,23.949,0.137,35.941c0,0.476-0.034,0.951,0.017,1.427
				c0.376,3.992,5.148,6.2,8.414,3.805C130.563,107.365,131.127,106.312,131.315,105.412z"/>
		</g>
	</g>
</g>
</svg>
